<svg width="50" height="50" viewBox="0 0 50 50" fill="none" xmlns="http://www.w3.org/2000/svg">
<circle cx="25" cy="25" r="24.5" fill="#172748" stroke="#172748"/>
<path d="M22 28L28 22" stroke="#FEB470" stroke-width="2" stroke-linecap="round" stroke-linejoin="round"/>
<path d="M22.5 23C22.7761 23 23 22.7761 23 22.5C23 22.2239 22.7761 22 22.5 22C22.2239 22 22 22.2239 22 22.5C22 22.7761 22.2239 23 22.5 23Z" fill="#FEB470" stroke="#FEB470" stroke-width="2" stroke-linecap="round" stroke-linejoin="round"/>
<path d="M27.5 28C27.7761 28 28 27.7761 28 27.5C28 27.2239 27.7761 27 27.5 27C27.2239 27 27 27.2239 27 27.5C27 27.7761 27.2239 28 27.5 28Z" fill="#FEB470" stroke="#FEB470" stroke-width="2" stroke-linecap="round" stroke-linejoin="round"/>
<path d="M16 25C16 26.1819 16.2328 27.3522 16.6851 28.4442C17.1374 29.5361 17.8003 30.5282 18.636 31.364C19.4718 32.1997 20.4639 32.8626 21.5558 33.3149C22.6478 33.7672 23.8181 34 25 34C26.1819 34 27.3522 33.7672 28.4442 33.3149C29.5361 32.8626 30.5282 32.1997 31.364 31.364C32.1997 30.5282 32.8626 29.5361 33.3149 28.4442C33.7672 27.3522 34 26.1819 34 25C34 23.8181 33.7672 22.6478 33.3149 21.5558C32.8626 20.4639 32.1997 19.4718 31.364 18.636C30.5282 17.8003 29.5361 17.1374 28.4442 16.6851C27.3522 16.2328 26.1819 16 25 16C23.8181 16 22.6478 16.2328 21.5558 16.6851C20.4639 17.1374 19.4718 17.8003 18.636 18.636C17.8003 19.4718 17.1374 20.4639 16.6851 21.5558C16.2328 22.6478 16 23.8181 16 25Z" stroke="#FEB470" stroke-width="2" stroke-linecap="round" stroke-linejoin="round"/>
</svg>
