<svg width="50" height="50" viewBox="0 0 50 50" fill="none" xmlns="http://www.w3.org/2000/svg">
<circle cx="25" cy="25" r="24.5" fill="#172748" stroke="#172748"/>
<path d="M20 28H23C23.2652 28 23.5196 27.8946 23.7071 27.7071C23.8946 27.5196 24 27.2652 24 27C24 26.7348 23.8946 26.4804 23.7071 26.2929C23.5196 26.1054 23.2652 26 23 26H20C19.7348 26 19.4804 26.1054 19.2929 26.2929C19.1054 26.4804 19 26.7348 19 27C19 27.2652 19.1054 27.5196 19.2929 27.7071C19.4804 27.8946 19.7348 28 20 28ZM32 18H18C17.2044 18 16.4413 18.3161 15.8787 18.8787C15.3161 19.4413 15 20.2044 15 21V30C15 30.7956 15.3161 31.5587 15.8787 32.1213C16.4413 32.6839 17.2044 33 18 33H32C32.7956 33 33.5587 32.6839 34.1213 32.1213C34.6839 31.5587 35 30.7956 35 30V21C35 20.2044 34.6839 19.4413 34.1213 18.8787C33.5587 18.3161 32.7956 18 32 18ZM33 30C33 30.2652 32.8946 30.5196 32.7071 30.7071C32.5196 30.8946 32.2652 31 32 31H18C17.7348 31 17.4804 30.8946 17.2929 30.7071C17.1054 30.5196 17 30.2652 17 30V24H33V30ZM33 22H17V21C17 20.7348 17.1054 20.4804 17.2929 20.2929C17.4804 20.1054 17.7348 20 18 20H32C32.2652 20 32.5196 20.1054 32.7071 20.2929C32.8946 20.4804 33 20.7348 33 21V22Z" fill="#FEB470"/>
</svg>
