<svg width="24" height="24" viewBox="0 0 24 24" fill="none" xmlns="http://www.w3.org/2000/svg">
<path d="M22 10.5V15.5C22 19 20 20.5 17 20.5H7C4 20.5 2 19 2 15.5V8.5C2 5 4 3.5 7 3.5H14" stroke="white" stroke-width="1.5" stroke-miterlimit="10" stroke-linecap="round" stroke-linejoin="round"/>
<path d="M2 10.5V15.5C2 19 4 20.5 7 20.5H17C20 20.5 22 19 22 15.5V8.5C22 5 20 3.5 17 3.5H10" stroke="white" stroke-width="1.5" stroke-miterlimit="10" stroke-linecap="round" stroke-linejoin="round"/>
<path d="M7 9L10.13 11.5C11.16 12.32 12.85 12.32 13.88 11.5L15.06 10.56" stroke="white" stroke-width="1.5" stroke-miterlimit="10" stroke-linecap="round" stroke-linejoin="round"/>
<path d="M17.0601 9L13.9301 11.5C12.9001 12.32 11.2101 12.32 10.1801 11.5L9.00006 10.56" stroke="white" stroke-width="1.5" stroke-miterlimit="10" stroke-linecap="round" stroke-linejoin="round"/>
</svg>
